<svg xmlns="http://www.w3.org/2000/svg" viewBox="0 0 1200 3200" font-family="-apple-system,BlinkMacSystemFont,'Segoe UI',Roboto,'Helvetica Neue',Arial,sans-serif">
  <defs>
    <marker id="arrow" viewBox="0 0 10 10" refX="9" refY="5" markerWidth="6" markerHeight="6" orient="auto"><path d="M 0 0 L 10 5 L 0 10 z" fill="#718096"/></marker>
    <marker id="arrowBlue" viewBox="0 0 10 10" refX="9" refY="5" markerWidth="6" markerHeight="6" orient="auto"><path d="M 0 0 L 10 5 L 0 10 z" fill="#4299e1"/></marker>
    <marker id="arrowGreen" viewBox="0 0 10 10" refX="9" refY="5" markerWidth="6" markerHeight="6" orient="auto"><path d="M 0 0 L 10 5 L 0 10 z" fill="#48bb78"/></marker>
    <marker id="arrowPurple" viewBox="0 0 10 10" refX="9" refY="5" markerWidth="6" markerHeight="6" orient="auto"><path d="M 0 0 L 10 5 L 0 10 z" fill="#9f7aea"/></marker>
    <marker id="arrowRed" viewBox="0 0 10 10" refX="9" refY="5" markerWidth="6" markerHeight="6" orient="auto"><path d="M 0 0 L 10 5 L 0 10 z" fill="#e53e3e"/></marker>
    <linearGradient id="bgGrad" x1="0%" y1="0%" x2="100%" y2="100%"><stop offset="0%" style="stop-color:#f7fafc"/><stop offset="100%" style="stop-color:#edf2f7"/></linearGradient>
    <linearGradient id="headerGrad" x1="0%" y1="0%" x2="100%" y2="0%"><stop offset="0%" style="stop-color:#1a202c"/><stop offset="100%" style="stop-color:#2d3748"/></linearGradient>
  </defs>

  <!-- Background -->
  <rect width="1200" height="3200" fill="url(#bgGrad)"/>

  <!-- ==================== TITLE ==================== -->
  <rect x="50" y="30" width="1100" height="80" rx="12" fill="url(#headerGrad)"/>
  <text x="600" y="65" text-anchor="middle" fill="white" font-size="28" font-weight="bold">Reliable Dev Harness — 五层架构总览</text>
  <text x="600" y="95" text-anchor="middle" fill="#a0aec0" font-size="14">Five-Layer Architecture Overview</text>

  <!-- ==================== SECTION 1: FIVE LAYERS ==================== -->
  <text x="600" y="155" text-anchor="middle" fill="#1a202c" font-size="22" font-weight="bold">① 五层架构 Five-Layer Architecture</text>

  <!-- Layer 5: Orchestrator -->
  <rect x="100" y="180" width="1000" height="65" rx="8" fill="#4299e1" opacity="0.9"/>
  <text x="140" y="210" fill="white" font-size="16" font-weight="bold">调度层 Orchestrator</text>
  <text x="140" y="232" fill="#ebf8ff" font-size="12">CLAUDE.md — 读取意图 → 路由 Skill → 委派 Sub-Agent → 执行 Hook</text>

  <!-- Layer 4: PM Decision (横切) -->
  <rect x="80" y="255" width="1040" height="65" rx="8" fill="#9f7aea" opacity="0.9"/>
  <text x="120" y="285" fill="white" font-size="16" font-weight="bold">横切决策层 PM Decision Layer</text>
  <text x="120" y="307" fill="#faf5ff" font-size="12">G0-G5 (Dev) + CG0-CG5 (Content) — 每个 Gate: Hard Gate (exit-check.py) + Creative Gate (人类) — severity: high / warning / info</text>

  <!-- Layer 3: Execution -->
  <rect x="100" y="330" width="1000" height="65" rx="8" fill="#ed8936" opacity="0.9"/>
  <text x="140" y="360" fill="white" font-size="16" font-weight="bold">执行层 Sub-Agents</text>
  <text x="140" y="382" fill="#fffaf0" font-size="12">每个 Task 全新实例 — 零继承上下文 — 状态通过 .claude/state/ 传递</text>

  <!-- Layer 2: Skills -->
  <rect x="100" y="405" width="480" height="55" rx="8" fill="#48bb78" opacity="0.9"/>
  <text x="120" y="430" fill="white" font-size="14" font-weight="bold">引导层 Skills (Dev)</text>
  <text x="120" y="448" fill="#f0fff4" font-size="11">8 Skills: spec→design→plan→build→review→release</text>
  <rect x="620" y="405" width="480" height="55" rx="8" fill="#48bb78" opacity="0.9"/>
  <text x="640" y="430" fill="white" font-size="14" font-weight="bold">引导层 Skills (Content)</text>
  <text x="640" y="448" fill="#f0fff4" font-size="11">4 Skills: script→visual→tts→video</text>

  <!-- Layer 1: Hooks + exit-check -->
  <rect x="100" y="470" width="1000" height="55" rx="8" fill="#e53e3e" opacity="0.85"/>
  <text x="140" y="498" fill="white" font-size="16" font-weight="bold">检查层 Hooks + exit-check.py</text>
  <text x="670" y="498" fill="#fff5f5" font-size="12">确定性脚本守门 — 编译不过 = 物理阻断 — 零 LLM 判断</text>

  <!-- Layer 0: Steering -->
  <rect x="100" y="535" width="1000" height="55" rx="8" fill="#718096" opacity="0.85"/>
  <text x="140" y="563" fill="white" font-size="16" font-weight="bold">进化层 Steering Loop</text>
  <text x="670" y="563" fill="#f7fafc" font-size="12">自动记录 → 自动提案 → 人类确认 → 合并 — 禁止自动写入规则</text>

  <!-- ==================== SECTION 2: DEV TRACK ==================== -->
  <text x="600" y="640" text-anchor="middle" fill="#1a202c" font-size="22" font-weight="bold">② 开发轨道 Dev Track Pipeline + PM Gates</text>

  <!-- Dev Track flow -->
  <!-- product-spec-builder -->
  <rect x="55" y="670" width="140" height="120" rx="8" fill="#4299e1" opacity="0.15" stroke="#4299e1" stroke-width="2"/>
  <text x="125" y="695" text-anchor="middle" fill="#2b6cb0" font-size="12" font-weight="bold">product-spec</text>
  <text x="125" y="712" text-anchor="middle" fill="#2b6cb0" font-size="12" font-weight="bold">-builder</text>
  <rect x="70" y="725" width="110" height="22" rx="4" fill="#9f7aea" opacity="0.8"/>
  <text x="125" y="741" text-anchor="middle" fill="white" font-size="9" font-weight="bold">G0 PM Discovery</text>
  <rect x="70" y="752" width="110" height="18" rx="4" fill="#48bb78" opacity="0.7"/>
  <text x="125" y="765" text-anchor="middle" fill="white" font-size="8">Hard + Creative Gate</text>

  <line x1="195" y1="730" x2="220" y2="730" stroke="#4299e1" stroke-width="2" marker-end="url(#arrowBlue)"/>

  <!-- design-brief-builder -->
  <rect x="220" y="670" width="140" height="120" rx="8" fill="#4299e1" opacity="0.15" stroke="#4299e1" stroke-width="2"/>
  <text x="290" y="695" text-anchor="middle" fill="#2b6cb0" font-size="12" font-weight="bold">design-brief</text>
  <text x="290" y="712" text-anchor="middle" fill="#2b6cb0" font-size="12" font-weight="bold">-builder</text>
  <rect x="235" y="725" width="110" height="22" rx="4" fill="#9f7aea" opacity="0.8"/>
  <text x="290" y="741" text-anchor="middle" fill="white" font-size="9" font-weight="bold">G1 PM Direction</text>
  <rect x="235" y="752" width="110" height="18" rx="4" fill="#48bb78" opacity="0.7"/>
  <text x="290" y="765" text-anchor="middle" fill="white" font-size="8">Hard + Creative Gate</text>

  <line x1="360" y1="730" x2="385" y2="730" stroke="#4299e1" stroke-width="2" marker-end="url(#arrowBlue)"/>

  <!-- design-maker -->
  <rect x="385" y="670" width="120" height="120" rx="8" fill="#4299e1" opacity="0.15" stroke="#4299e1" stroke-width="2"/>
  <text x="445" y="695" text-anchor="middle" fill="#2b6cb0" font-size="12" font-weight="bold">design</text>
  <text x="445" y="712" text-anchor="middle" fill="#2b6cb0" font-size="12" font-weight="bold">-maker</text>
  <rect x="400" y="725" width="90" height="22" rx="4" fill="#e53e3e" opacity="0.7"/>
  <text x="445" y="741" text-anchor="middle" fill="white" font-size="9">Hard Gate</text>

  <line x1="505" y1="730" x2="530" y2="730" stroke="#4299e1" stroke-width="2" marker-end="url(#arrowBlue)"/>

  <!-- dev-planner -->
  <rect x="530" y="670" width="130" height="120" rx="8" fill="#4299e1" opacity="0.15" stroke="#4299e1" stroke-width="2"/>
  <text x="595" y="695" text-anchor="middle" fill="#2b6cb0" font-size="12" font-weight="bold">dev</text>
  <text x="595" y="712" text-anchor="middle" fill="#2b6cb0" font-size="12" font-weight="bold">-planner</text>
  <rect x="545" y="725" width="100" height="22" rx="4" fill="#9f7aea" opacity="0.8"/>
  <text x="595" y="741" text-anchor="middle" fill="white" font-size="9" font-weight="bold">G2 PM Scope</text>
  <rect x="545" y="752" width="100" height="18" rx="4" fill="#48bb78" opacity="0.7"/>
  <text x="595" y="765" text-anchor="middle" fill="white" font-size="8">Hard + Creative</text>

  <line x1="660" y1="730" x2="685" y2="730" stroke="#4299e1" stroke-width="2" marker-end="url(#arrowBlue)"/>

  <!-- dev-builder -->
  <rect x="685" y="670" width="120" height="120" rx="8" fill="#4299e1" opacity="0.15" stroke="#4299e1" stroke-width="2"/>
  <text x="745" y="695" text-anchor="middle" fill="#2b6cb0" font-size="12" font-weight="bold">dev</text>
  <text x="745" y="712" text-anchor="middle" fill="#2b6cb0" font-size="12" font-weight="bold">-builder</text>
  <rect x="700" y="725" width="90" height="22" rx="4" fill="#e53e3e" opacity="0.7"/>
  <text x="745" y="741" text-anchor="middle" fill="white" font-size="9">Hard Gate</text>

  <line x1="805" y1="730" x2="830" y2="730" stroke="#4299e1" stroke-width="2" marker-end="url(#arrowBlue)"/>

  <!-- code-review -->
  <rect x="830" y="670" width="130" height="120" rx="8" fill="#4299e1" opacity="0.15" stroke="#4299e1" stroke-width="2"/>
  <text x="895" y="695" text-anchor="middle" fill="#2b6cb0" font-size="12" font-weight="bold">code</text>
  <text x="895" y="712" text-anchor="middle" fill="#2b6cb0" font-size="12" font-weight="bold">-review</text>
  <rect x="845" y="725" width="100" height="22" rx="4" fill="#9f7aea" opacity="0.8"/>
  <text x="895" y="741" text-anchor="middle" fill="white" font-size="9" font-weight="bold">G3 Compliance</text>
  <rect x="845" y="752" width="100" height="18" rx="4" fill="#ecc94b" opacity="0.9"/>
  <text x="895" y="765" text-anchor="middle" fill="#1a202c" font-size="8" font-weight="bold">G3b Spec Gap A-E</text>

  <line x1="960" y1="730" x2="985" y2="730" stroke="#4299e1" stroke-width="2" marker-end="url(#arrowBlue)"/>

  <!-- release-builder -->
  <rect x="985" y="670" width="140" height="120" rx="8" fill="#4299e1" opacity="0.15" stroke="#4299e1" stroke-width="2"/>
  <text x="1055" y="695" text-anchor="middle" fill="#2b6cb0" font-size="12" font-weight="bold">release</text>
  <text x="1055" y="712" text-anchor="middle" fill="#2b6cb0" font-size="12" font-weight="bold">-builder</text>
  <rect x="1000" y="725" width="110" height="22" rx="4" fill="#9f7aea" opacity="0.8"/>
  <text x="1055" y="741" text-anchor="middle" fill="white" font-size="9" font-weight="bold">G4 PM Release</text>
  <rect x="1000" y="752" width="110" height="18" rx="4" fill="#48bb78" opacity="0.7"/>
  <text x="1055" y="765" text-anchor="middle" fill="white" font-size="8">Hard + Creative Gate</text>

  <!-- G5 validation (separate) -->
  <rect x="450" y="810" width="300" height="45" rx="8" fill="#9f7aea" opacity="0.15" stroke="#9f7aea" stroke-width="2" stroke-dasharray="5,3"/>
  <text x="600" y="838" text-anchor="middle" fill="#6b46c1" font-size="13" font-weight="bold">G5 PM Validation Gate — 上线后 7/30 天验证</text>

  <!-- ==================== SECTION 3: CONTENT TRACK ==================== -->
  <text x="600" y="910" text-anchor="middle" fill="#1a202c" font-size="22" font-weight="bold">③ 内容轨道 Content Track Pipeline + PM Gates</text>

  <!-- Content Track flow -->
  <rect x="55" y="940" width="170" height="120" rx="8" fill="#ed8936" opacity="0.15" stroke="#ed8936" stroke-width="2"/>
  <text x="140" y="965" text-anchor="middle" fill="#c05621" font-size="13" font-weight="bold">script</text>
  <text x="140" y="982" text-anchor="middle" fill="#c05621" font-size="13" font-weight="bold">-writer</text>
  <rect x="70" y="995" width="125" height="22" rx="4" fill="#9f7aea" opacity="0.8"/>
  <text x="132" y="1011" text-anchor="middle" fill="white" font-size="9" font-weight="bold">CG0 Content Strategy</text>
  <rect x="70" y="1020" width="125" height="18" rx="4" fill="#48bb78" opacity="0.7"/>
  <text x="132" y="1034" text-anchor="middle" fill="white" font-size="8">Hard + Creative Gate</text>

  <line x1="225" y1="1000" x2="265" y2="1000" stroke="#ed8936" stroke-width="2" marker-end="url(#arrow)"/>

  <rect x="265" y="940" width="170" height="120" rx="8" fill="#ed8936" opacity="0.15" stroke="#ed8936" stroke-width="2"/>
  <text x="350" y="965" text-anchor="middle" fill="#c05621" font-size="13" font-weight="bold">visual</text>
  <text x="350" y="982" text-anchor="middle" fill="#c05621" font-size="13" font-weight="bold">-designer</text>
  <rect x="280" y="995" width="125" height="22" rx="4" fill="#9f7aea" opacity="0.8"/>
  <text x="342" y="1011" text-anchor="middle" fill="white" font-size="9" font-weight="bold">CG1 Visual Direction</text>
  <rect x="280" y="1020" width="125" height="18" rx="4" fill="#48bb78" opacity="0.7"/>
  <text x="342" y="1034" text-anchor="middle" fill="white" font-size="8">Hard + Creative Gate</text>

  <line x1="435" y1="1000" x2="475" y2="1000" stroke="#ed8936" stroke-width="2" marker-end="url(#arrow)"/>

  <rect x="475" y="940" width="170" height="120" rx="8" fill="#ed8936" opacity="0.15" stroke="#ed8936" stroke-width="2"/>
  <text x="560" y="965" text-anchor="middle" fill="#c05621" font-size="13" font-weight="bold">tts</text>
  <text x="560" y="982" text-anchor="middle" fill="#c05621" font-size="13" font-weight="bold">-engine</text>
  <rect x="490" y="995" width="125" height="22" rx="4" fill="#e53e3e" opacity="0.85"/>
  <text x="552" y="1011" text-anchor="middle" fill="white" font-size="9" font-weight="bold">CG2 Voice ⚠ NO SKIP</text>
  <rect x="490" y="1020" width="125" height="18" rx="4" fill="#48bb78" opacity="0.7"/>
  <text x="552" y="1034" text-anchor="middle" fill="white" font-size="8">Hard + Creative Gate</text>

  <line x1="645" y1="1000" x2="685" y2="1000" stroke="#ed8936" stroke-width="2" marker-end="url(#arrow)"/>

  <rect x="685" y="940" width="170" height="120" rx="8" fill="#ed8936" opacity="0.15" stroke="#ed8936" stroke-width="2"/>
  <text x="770" y="965" text-anchor="middle" fill="#c05621" font-size="13" font-weight="bold">video</text>
  <text x="770" y="982" text-anchor="middle" fill="#c05621" font-size="13" font-weight="bold">-compositor</text>
  <rect x="700" y="995" width="125" height="22" rx="4" fill="#9f7aea" opacity="0.8"/>
  <text x="762" y="1011" text-anchor="middle" fill="white" font-size="9" font-weight="bold">CG3 Final Review</text>
  <rect x="700" y="1020" width="125" height="18" rx="4" fill="#48bb78" opacity="0.7"/>
  <text x="762" y="1034" text-anchor="middle" fill="white" font-size="8">Hard + Creative Gate</text>

  <!-- CG4 + CG5 row -->
  <line x1="855" y1="1000" x2="895" y2="1000" stroke="#ed8936" stroke-width="2" marker-end="url(#arrow)"/>

  <rect x="895" y="940" width="150" height="55" rx="8" fill="#9f7aea" opacity="0.15" stroke="#9f7aea" stroke-width="2"/>
  <text x="970" y="965" text-anchor="middle" fill="#6b46c1" font-size="11" font-weight="bold">CG4 Distribution</text>
  <text x="970" y="982" text-anchor="middle" fill="#6b46c1" font-size="10">分发元数据+UTM</text>

  <rect x="895" y="1005" width="150" height="55" rx="8" fill="#9f7aea" opacity="0.15" stroke="#9f7aea" stroke-width="2" stroke-dasharray="5,3"/>
  <text x="970" y="1030" text-anchor="middle" fill="#6b46c1" font-size="11" font-weight="bold">CG5 Content Validation</text>
  <text x="970" y="1047" text-anchor="middle" fill="#6b46c1" font-size="10">发布后 7 天验证</text>

  <!-- ==================== SECTION 4: STATE FILES ==================== -->
  <text x="600" y="1120" text-anchor="middle" fill="#1a202c" font-size="22" font-weight="bold">④ 层级上下文 State Files (L0-L6)</text>

  <!-- State file boxes -->
  <rect x="80" y="1150" width="140" height="85" rx="6" fill="#9f7aea" opacity="0.2" stroke="#9f7aea" stroke-width="1.5"/>
  <text x="150" y="1175" text-anchor="middle" fill="#6b46c1" font-size="13" font-weight="bold">L0-strategy.md</text>
  <text x="150" y="1195" text-anchor="middle" fill="#718096" font-size="10">Content Strategy</text>
  <text x="150" y="1210" text-anchor="middle" fill="#718096" font-size="9">业务目标·受众·KPI</text>

  <rect x="240" y="1150" width="140" height="85" rx="6" fill="#4299e1" opacity="0.2" stroke="#4299e1" stroke-width="1.5"/>
  <text x="310" y="1175" text-anchor="middle" fill="#2b6cb0" font-size="13" font-weight="bold">L1-summary.md</text>
  <text x="310" y="1195" text-anchor="middle" fill="#718096" font-size="10">项目概览（共享）</text>

  <rect x="400" y="1150" width="140" height="85" rx="6" fill="#4299e1" opacity="0.2" stroke="#4299e1" stroke-width="1.5"/>
  <text x="470" y="1175" text-anchor="middle" fill="#2b6cb0" font-size="13" font-weight="bold">L2-spec.md</text>
  <text x="470" y="1195" text-anchor="middle" fill="#718096" font-size="10">Dev: 需求规格</text>
  <text x="470" y="1210" text-anchor="middle" fill="#718096" font-size="9">Content: 内容规格</text>

  <rect x="560" y="1150" width="140" height="85" rx="6" fill="#ed8936" opacity="0.2" stroke="#ed8936" stroke-width="1.5"/>
  <text x="630" y="1175" text-anchor="middle" fill="#c05621" font-size="13" font-weight="bold">L3-design.md</text>
  <text x="630" y="1195" text-anchor="middle" fill="#718096" font-size="10">Dev: 设计简报</text>
  <text x="630" y="1210" text-anchor="middle" fill="#718096" font-size="9">Content: 视觉规格</text>

  <rect x="720" y="1150" width="140" height="85" rx="6" fill="#48bb78" opacity="0.2" stroke="#48bb78" stroke-width="1.5"/>
  <text x="790" y="1175" text-anchor="middle" fill="#276749" font-size="13" font-weight="bold">L4-plan.md</text>
  <text x="790" y="1195" text-anchor="middle" fill="#718096" font-size="10">Dev: 开发计划</text>
  <text x="790" y="1210" text-anchor="middle" fill="#718096" font-size="9">Content: 流水线进度</text>

  <rect x="880" y="1150" width="120" height="85" rx="6" fill="#ed8936" opacity="0.2" stroke="#ed8936" stroke-width="1.5"/>
  <text x="940" y="1175" text-anchor="middle" fill="#c05621" font-size="13" font-weight="bold">L5-media.md</text>
  <text x="940" y="1195" text-anchor="middle" fill="#718096" font-size="10">媒体资产清单</text>

  <rect x="1020" y="1150" width="140" height="85" rx="6" fill="#9f7aea" opacity="0.2" stroke="#9f7aea" stroke-width="1.5"/>
  <text x="1090" y="1175" text-anchor="middle" fill="#6b46c1" font-size="13" font-weight="bold">L6-distribution</text>
  <text x="1090" y="1195" text-anchor="middle" fill="#718096" font-size="10">分发计划</text>
  <text x="1090" y="1210" text-anchor="middle" fill="#718096" font-size="9">平台·UTM·版权</text>

  <!-- PM Enrichment badges on state files -->
  <text x="150" y="1245" text-anchor="middle" fill="#9f7aea" font-size="9">+ PM: Business Goal</text>
  <text x="150" y="1258" text-anchor="middle" fill="#9f7aea" font-size="9">+ Audience·KPI</text>
  <text x="470" y="1245" text-anchor="middle" fill="#9f7aea" font-size="9">+ PM: P0/P1/P2</text>
  <text x="470" y="1258" text-anchor="middle" fill="#9f7aea" font-size="9">+ Business Goal</text>
  <text x="630" y="1245" text-anchor="middle" fill="#9f7aea" font-size="9">+ PM: Brand Guideline</text>
  <text x="630" y="1258" text-anchor="middle" fill="#9f7aea" font-size="9">+ Accessibility</text>
  <text x="790" y="1245" text-anchor="middle" fill="#9f7aea" font-size="9">+ PM: Feature-Phase</text>
  <text x="790" y="1258" text-anchor="middle" fill="#9f7aea" font-size="9">+ Risk·MVP·Spec Gaps</text>

  <!-- ==================== SECTION 5: PM GATE TABLE ==================== -->
  <text x="600" y="1320" text-anchor="middle" fill="#1a202c" font-size="22" font-weight="bold">⑤ PM Gate Points 决策点总览</text>

  <!-- Table header -->
  <rect x="60" y="1348" width="1080" height="35" rx="4" fill="#2d3748"/>
  <text x="90" y="1370" fill="white" font-size="12" font-weight="bold">Gate</text>
  <text x="200" y="1370" fill="white" font-size="12" font-weight="bold">时机</text>
  <text x="420" y="1370" fill="white" font-size="12" font-weight="bold">PM 决策</text>
  <text x="800" y="1370" fill="white" font-size="12" font-weight="bold">Hard Gate 检查</text>
  <text x="1020" y="1370" fill="white" font-size="12" font-weight="bold">严重级别</text>

  <!-- Table rows -->
  <!-- G0 -->
  <rect x="60" y="1383" width="1080" height="28" rx="0" fill="#ebf8ff"/>
  <text x="90" y="1402" fill="#2b6cb0" font-size="11" font-weight="bold">G0</text>
  <text x="200" y="1402" fill="#1a202c" font-size="10">product-spec 之后</text>
  <text x="420" y="1402" fill="#1a202c" font-size="10">Feature选择·Scope边界·Metrics·MVP边界·优先级</text>
  <text x="800" y="1402" fill="#1a202c" font-size="10">问题量化+用户画像+指标可衡量+Out-of-Scope存在</text>
  <text x="1020" y="1402" fill="#1a202c" font-size="10">high/warning/info</text>

  <!-- G1 -->
  <rect x="60" y="1411" width="1080" height="28" rx="0" fill="white"/>
  <text x="90" y="1430" fill="#2b6cb0" font-size="11" font-weight="bold">G1</text>
  <text x="200" y="1430" fill="#1a202c" font-size="10">design-brief 之后</text>
  <text x="420" y="1430" fill="#1a202c" font-size="10">设计方向与业务目标一致性确认</text>
  <text x="800" y="1430" fill="#1a202c" font-size="10">品牌规范引用存在或明确"无品牌约束"</text>
  <text x="1020" y="1430" fill="#48bb78" font-size="10" font-weight="bold">✓ exit-check</text>

  <!-- G2 -->
  <rect x="60" y="1439" width="1080" height="28" rx="0" fill="#ebf8ff"/>
  <text x="90" y="1458" fill="#2b6cb0" font-size="11" font-weight="bold">G2</text>
  <text x="200" y="1458" fill="#1a202c" font-size="10">dev-planner 之后</text>
  <text x="420" y="1458" fill="#1a202c" font-size="10">Phase划分与业务优先级对齐·MVP范围确认</text>
  <text x="800" y="1458" fill="#1a202c" font-size="10">Feature-Phase映射+MVP边界+Business Goal追溯</text>
  <text x="1020" y="1458" fill="#48bb78" font-size="10" font-weight="bold">✓ exit-check</text>

  <!-- G3 -->
  <rect x="60" y="1467" width="1080" height="28" rx="0" fill="white"/>
  <text x="90" y="1486" fill="#2b6cb0" font-size="11" font-weight="bold">G3</text>
  <text x="200" y="1486" fill="#1a202c" font-size="10">code-review Stage 1</text>
  <text x="420" y="1486" fill="#1a202c" font-size="10">Spec条目验证·scope creep检测·user impact评估</text>
  <text x="800" y="1486" fill="#1a202c" font-size="10">spec覆盖率检查+scope creep+HIGH user impact</text>
  <text x="1020" y="1486" fill="#48bb78" font-size="10" font-weight="bold">✓ exit-check</text>

  <!-- G3b -->
  <rect x="60" y="1495" width="1080" height="28" rx="0" fill="#faf5ff"/>
  <text x="90" y="1514" fill="#9f7aea" font-size="11" font-weight="bold">G3b</text>
  <text x="200" y="1514" fill="#1a202c" font-size="10">实现过程中发现 spec 缺口</text>
  <text x="420" y="1514" fill="#1a202c" font-size="10">Spec Gap Protocol: A/B/C(small)/C(large)/D/E</text>
  <text x="800" y="1514" fill="#1a202c" font-size="10">缺口分类+决策者+处理方式</text>
  <text x="1020" y="1514" fill="#ecc94b" font-size="10" font-weight="bold">⚠ SKILL.md</text>

  <!-- G4 -->
  <rect x="60" y="1523" width="1080" height="28" rx="0" fill="#ebf8ff"/>
  <text x="90" y="1542" fill="#2b6cb0" font-size="11" font-weight="bold">G4</text>
  <text x="200" y="1542" fill="#1a202c" font-size="10">release-builder 之前</text>
  <text x="420" y="1542" fill="#1a202c" font-size="10">Go/No-Go·回滚标准·Stakeholder通知</text>
  <text x="800" y="1542" fill="#1a202c" font-size="10">P0功能+回滚计划+Smoke test通过</text>
  <text x="1020" y="1542" fill="#48bb78" font-size="10" font-weight="bold">✓ exit-check</text>

  <!-- G5 -->
  <rect x="60" y="1551" width="1080" height="28" rx="0" fill="white"/>
  <text x="90" y="1570" fill="#9f7aea" font-size="11" font-weight="bold">G5</text>
  <text x="200" y="1570" fill="#1a202c" font-size="10">上线后 7/30 天</text>
  <text x="420" y="1570" fill="#1a202c" font-size="10">Metrics与spec对齐·GO/PIVOT/KILL</text>
  <text x="800" y="1570" fill="#1a202c" font-size="10">L5-validation.md（M4 新建）</text>
  <text x="1020" y="1570" fill="#718096" font-size="10">⬜ M4</text>

  <!-- CG0-CG5 -->
  <rect x="60" y="1581" width="1080" height="2" rx="0" fill="#e2e8f0"/>

  <!-- CG0 -->
  <rect x="60" y="1583" width="1080" height="28" rx="0" fill="#fffaf0"/>
  <text x="90" y="1602" fill="#c05621" font-size="11" font-weight="bold">CG0</text>
  <text x="200" y="1602" fill="#1a202c" font-size="10">script-writer 之前</text>
  <text x="420" y="1602" fill="#1a202c" font-size="10">目标受众·业务目标·KPI·核心信息·差异化</text>
  <text x="800" y="1602" fill="#1a202c" font-size="10">L0-strategy.md 存在且含 Target+Audience+KPI</text>
  <text x="1020" y="1602" fill="#48bb78" font-size="10" font-weight="bold">✓ CLAUDE.md</text>

  <!-- CG1 -->
  <rect x="60" y="1611" width="1080" height="28" rx="0" fill="white"/>
  <text x="90" y="1630" fill="#c05621" font-size="11" font-weight="bold">CG1</text>
  <text x="200" y="1630" fill="#1a202c" font-size="10">visual-designer 风格选择</text>
  <text x="420" y="1630" fill="#1a202c" font-size="10">品牌调性确认·可访问性</text>
  <text x="800" y="1630" fill="#1a202c" font-size="10">Brand Guideline引用 + Accessibility声明</text>
  <text x="1020" y="1630" fill="#48bb78" font-size="10" font-weight="bold">✓ exit-check</text>

  <!-- CG2 -->
  <rect x="60" y="1639" width="1080" height="28" rx="0" fill="#fffaf0"/>
  <text x="90" y="1658" fill="#e53e3e" font-size="11" font-weight="bold">CG2</text>
  <text x="200" y="1658" fill="#1a202c" font-size="10">tts-engine 风格选择 ⚠️不可跳过</text>
  <text x="420" y="1658" fill="#1a202c" font-size="10">声音品牌确认·语速适配</text>
  <text x="800" y="1658" fill="#1a202c" font-size="10">TTS风格与Mood标签对齐</text>
  <text x="1020" y="1658" fill="#e53e3e" font-size="10" font-weight="bold">✓ NOT skippable</text>

  <!-- CG3 -->
  <rect x="60" y="1667" width="1080" height="28" rx="0" fill="white"/>
  <text x="90" y="1686" fill="#c05621" font-size="11" font-weight="bold">CG3</text>
  <text x="200" y="1686" fill="#1a202c" font-size="10">video-compositor 之后</text>
  <text x="420" y="1686" fill="#1a202c" font-size="10">最终视频确认·CTA有效性</text>
  <text x="800" y="1686" fill="#1a202c" font-size="10">视频参数+时长+CTA存在</text>
  <text x="1020" y="1686" fill="#48bb78" font-size="10" font-weight="bold">✓ exit-check</text>

  <!-- CG4 -->
  <rect x="60" y="1695" width="1080" height="28" rx="0" fill="#fffaf0"/>
  <text x="90" y="1714" fill="#c05621" font-size="11" font-weight="bold">CG4</text>
  <text x="200" y="1714" fill="#1a202c" font-size="10">发布前</text>
  <text x="420" y="1714" fill="#1a202c" font-size="10">分发元数据·UTM追踪·版权</text>
  <text x="800" y="1714" fill="#1a202c" font-size="10">L6-distribution.md 完整</text>
  <text x="1020" y="1714" fill="#718096" font-size="10">⬜ M4 Skill</text>

  <!-- CG5 -->
  <rect x="60" y="1723" width="1080" height="28" rx="0" fill="white"/>
  <text x="90" y="1742" fill="#c05621" font-size="11" font-weight="bold">CG5</text>
  <text x="200" y="1742" fill="#1a202c" font-size="10">发布后 7 天</text>
  <text x="420" y="1742" fill="#1a202c" font-size="10">KPI达标·内容迭代决策</text>
  <text x="800" y="1742" fill="#1a202c" font-size="10">L5-validation.md（M4 新建）</text>
  <text x="1020" y="1742" fill="#718096" font-size="10">⬜ M4</text>

  <!-- ==================== SECTION 6: SPEC GAP PROTOCOL ==================== -->
  <text x="600" y="1800" text-anchor="middle" fill="#1a202c" font-size="22" font-weight="bold">⑥ Spec Gap Protocol 缺口处理协议</text>

  <!-- Table header -->
  <rect x="60" y="1825" width="1080" height="32" rx="4" fill="#2d3748"/>
  <text x="90" y="1846" fill="white" font-size="12" font-weight="bold">类型</text>
  <text x="200" y="1846" fill="white" font-size="12" font-weight="bold">描述</text>
  <text x="530" y="1846" fill="white" font-size="12" font-weight="bold">决策者</text>
  <text x="700" y="1846" fill="white" font-size="12" font-weight="bold">处理方式</text>

  <!-- Gap rows -->
  <rect x="60" y="1857" width="1080" height="26" rx="0" fill="#f0fff4"/>
  <text x="90" y="1875" fill="#276749" font-size="12" font-weight="bold">A</text>
  <text x="200" y="1875" fill="#1a202c" font-size="11">功能在 spec 中但描述不够详细</text>
  <text x="530" y="1875" fill="#1a202c" font-size="11">PM</text>
  <text x="700" y="1875" fill="#1a202c" font-size="11">补全文档到 L2-spec</text>

  <rect x="60" y="1883" width="1080" height="26" rx="0" fill="white"/>
  <text x="90" y="1901" fill="#276749" font-size="12" font-weight="bold">B</text>
  <text x="200" y="1901" fill="#1a202c" font-size="11">spec 有相关描述但含义不明确</text>
  <text x="530" y="1901" fill="#1a202c" font-size="11">PM + Designer</text>
  <text x="700" y="1901" fill="#1a202c" font-size="11">联合决定解释方式，更新 spec</text>

  <rect x="60" y="1909" width="1080" height="26" rx="0" fill="#fffff0"/>
  <text x="90" y="1927" fill="#ecc94b" font-size="12" font-weight="bold">C(小)</text>
  <text x="200" y="1927" fill="#1a202c" font-size="11">spec 缺少需求，影响 &lt;20% story points</text>
  <text x="530" y="1927" fill="#1a202c" font-size="11">PM</text>
  <text x="700" y="1927" fill="#1a202c" font-size="11">在 OKR 范围内消化</text>

  <rect x="60" y="1935" width="1080" height="26" rx="0" fill="#fff5f5"/>
  <text x="90" y="1953" fill="#e53e3e" font-size="12" font-weight="bold">C(大)</text>
  <text x="200" y="1953" fill="#1a202c" font-size="11">spec 缺少需求，影响 ≥20% story points</text>
  <text x="530" y="1953" fill="#1a202c" font-size="11">PM → 领导层</text>
  <text x="700" y="1953" fill="#1a202c" font-size="11">升级到领导层</text>

  <rect x="60" y="1961" width="1080" height="26" rx="0" fill="#fff5f5"/>
  <text x="90" y="1979" fill="#e53e3e" font-size="12" font-weight="bold">D</text>
  <text x="200" y="1979" fill="#1a202c" font-size="11">实现过程中需要战略方向调整</text>
  <text x="530" y="1979" fill="#1a202c" font-size="11">PM → 领导层</text>
  <text x="700" y="1979" fill="#1a202c" font-size="11">升级到领导层带推荐方案</text>

  <!-- ==================== SECTION 7: DUAL GATE ==================== -->
  <text x="600" y="2040" text-anchor="middle" fill="#1a202c" font-size="22" font-weight="bold">⑦ 双网关机制 Dual Gate Mechanism</text>

  <!-- Hard Gate -->
  <rect x="80" y="2075" width="490" height="170" rx="12" fill="#fff5f5" stroke="#e53e3e" stroke-width="2"/>
  <text x="325" y="2105" text-anchor="middle" fill="#e53e3e" font-size="18" font-weight="bold">Hard Gate</text>
  <text x="325" y="2125" text-anchor="middle" fill="#1a202c" font-size="12">确定性验证 — exit-check.py</text>
  <text x="325" y="2148" text-anchor="middle" fill="#718096" font-size="11">✓ 文件存在、格式合法、数值阈值</text>
  <text x="325" y="2168" text-anchor="middle" fill="#718096" font-size="11">✓ 二元通过/失败，没有例外</text>
  <text x="325" y="2188" text-anchor="middle" fill="#718096" font-size="11">✓ 三级严重级别: high / warning / info</text>
  <rect x="280" y="2200" width="90" height="30" rx="4" fill="#e53e3e"/>
  <text x="325" y="2220" text-anchor="middle" fill="white" font-size="12" font-weight="bold">Exit ≠ 0 → BLOCK</text>

  <!-- Creative Gate -->
  <rect x="630" y="2075" width="490" height="170" rx="12" fill="#f0fff4" stroke="#48bb78" stroke-width="2"/>
  <text x="875" y="2105" text-anchor="middle" fill="#276749" font-size="18" font-weight="bold">Creative Gate</text>
  <text x="875" y="2125" text-anchor="middle" fill="#1a202c" font-size="12">人类判断点 — Orchestrator</text>
  <text x="875" y="2148" text-anchor="middle" fill="#718096" font-size="11">✓ 风格偏好、场景拆分、视觉满意度</text>
  <text x="875" y="2168" text-anchor="middle" fill="#718096" font-size="11">✓ 默认不可跳过（CG2 TTS 风格也不可跳过）</text>
  <text x="875" y="2188" text-anchor="middle" fill="#718096" font-size="11">✓ 不满意 → 回到当前 Skill 重新执行</text>
  <rect x="830" y="2200" width="90" height="30" rx="4" fill="#48bb78"/>
  <text x="875" y="2220" text-anchor="middle" fill="white" font-size="12" font-weight="bold">Human ✅</text>

  <!-- ==================== SECTION 8: STEERING LOOP ==================== -->
  <text x="600" y="2310" text-anchor="middle" fill="#1a202c" font-size="22" font-weight="bold">⑧ 进化层 Steering Loop</text>

  <!-- Steering loop diagram -->
  <rect x="100" y="2345" width="160" height="55" rx="8" fill="#718096" opacity="0.2" stroke="#718096" stroke-width="1.5"/>
  <text x="180" y="2370" text-anchor="middle" fill="#4a5568" font-size="13" font-weight="bold">用户反馈</text>
  <text x="180" y="2388" text-anchor="middle" fill="#718096" font-size="10">Feedback</text>

  <line x1="260" y1="2372" x2="300" y2="2372" stroke="#718096" stroke-width="2" marker-end="url(#arrow)"/>

  <rect x="300" y="2345" width="160" height="55" rx="8" fill="#718096" opacity="0.2" stroke="#718096" stroke-width="1.5"/>
  <text x="380" y="2370" text-anchor="middle" fill="#4a5568" font-size="13" font-weight="bold">信号检测</text>
  <text x="380" y="2388" text-anchor="middle" fill="#718096" font-size="10">detect-feedback</text>

  <line x1="460" y1="2372" x2="500" y2="2372" stroke="#718096" stroke-width="2" marker-end="url(#arrow)"/>

  <rect x="500" y="2345" width="160" height="55" rx="8" fill="#718096" opacity="0.2" stroke="#718096" stroke-width="1.5"/>
  <text x="580" y="2370" text-anchor="middle" fill="#4a5568" font-size="13" font-weight="bold">观察积累</text>
  <text x="580" y="2388" text-anchor="middle" fill="#718096" font-size="10">FEEDBACK-OBSERVER</text>

  <line x1="660" y1="2372" x2="700" y2="2372" stroke="#718096" stroke-width="2" marker-end="url(#arrow)"/>

  <rect x="700" y="2345" width="160" height="55" rx="8" fill="#ecc94b" opacity="0.3" stroke="#ecc94b" stroke-width="2"/>
  <text x="780" y="2370" text-anchor="middle" fill="#744210" font-size="13" font-weight="bold">阈值毕业</text>
  <text x="780" y="2388" text-anchor="middle" fill="#744210" font-size="10">Dev≥3 / PM≥2 / Content≥5</text>

  <line x1="860" y1="2372" x2="900" y2="2372" stroke="#718096" stroke-width="2" marker-end="url(#arrow)"/>

  <rect x="900" y="2345" width="160" height="55" rx="8" fill="#9f7aea" opacity="0.3" stroke="#9f7aea" stroke-width="2"/>
  <text x="980" y="2370" text-anchor="middle" fill="#553c9a" font-size="13" font-weight="bold">规则提案</text>
  <text x="980" y="2388" text-anchor="middle" fill="#553c9a" font-size="10">evolution-runner</text>

  <!-- Human gate below -->
  <line x1="980" y1="2400" x2="980" y2="2430" stroke="#9f7aea" stroke-width="2" marker-end="url(#arrowPurple)"/>
  <rect x="890" y="2430" width="180" height="50" rx="8" fill="#e53e3e" opacity="0.15" stroke="#e53e3e" stroke-width="2"/>
  <text x="980" y="2455" text-anchor="middle" fill="#e53e3e" font-size="14" font-weight="bold">👤 人类确认</text>
  <text x="980" y="2472" text-anchor="middle" fill="#718096" font-size="10">确认 → 合并 / 拒绝 → 丢弃</text>

  <!-- ==================== SECTION 9: CONTEXT FIREWALL ==================== -->
  <text x="600" y="2550" text-anchor="middle" fill="#1a202c" font-size="22" font-weight="bold">⑨ Sub-Agent 上下文防火墙 Context Firewall</text>

  <!-- Orchestrator -->
  <rect x="350" y="2585" width="500" height="70" rx="12" fill="#4299e1" opacity="0.2" stroke="#4299e1" stroke-width="2"/>
  <text x="600" y="2615" text-anchor="middle" fill="#2b6cb0" font-size="16" font-weight="bold">Orchestrator (You)</text>
  <text x="600" y="2638" text-anchor="middle" fill="#718096" font-size="12">读取 CLAUDE.md + state + Skill → 路由 → 委派 Sub-Agent</text>

  <!-- Arrow down to firewall -->
  <line x1="600" y1="2655" x2="600" y2="2685" stroke="#4299e1" stroke-width="2" marker-end="url(#arrowBlue)"/>

  <!-- Context Firewall -->
  <rect x="300" y="2685" width="600" height="40" rx="8" fill="#e53e3e" opacity="0.15" stroke="#e53e3e" stroke-width="2" stroke-dasharray="8,4"/>
  <text x="600" y="2710" text-anchor="middle" fill="#e53e3e" font-size="14" font-weight="bold">🔒 上下文防火墙 Context Firewall — 零继承</text>

  <!-- Arrow down to Sub-Agents -->
  <line x1="600" y1="2725" x2="600" y2="2755" stroke="#4299e1" stroke-width="2" marker-end="url(#arrowBlue)"/>

  <!-- Sub-Agent boxes -->
  <rect x="120" y="2755" width="200" height="60" rx="8" fill="#ed8936" opacity="0.2" stroke="#ed8936" stroke-width="1.5"/>
  <text x="220" y="2782" text-anchor="middle" fill="#c05621" font-size="13" font-weight="bold">Task 1</text>
  <text x="220" y="2800" text-anchor="middle" fill="#718096" font-size="10">🆕 全新实例</text>

  <rect x="360" y="2755" width="200" height="60" rx="8" fill="#ed8936" opacity="0.2" stroke="#ed8936" stroke-width="1.5"/>
  <text x="460" y="2782" text-anchor="middle" fill="#c05621" font-size="13" font-weight="bold">Task 2</text>
  <text x="460" y="2800" text-anchor="middle" fill="#718096" font-size="10">🆕 全新实例</text>

  <rect x="600" y="2755" width="200" height="60" rx="8" fill="#ed8936" opacity="0.2" stroke="#ed8936" stroke-width="1.5"/>
  <text x="700" y="2782" text-anchor="middle" fill="#c05621" font-size="13" font-weight="bold">Task 3</text>
  <text x="700" y="2800" text-anchor="middle" fill="#718096" font-size="10">🆕 全新实例</text>

  <!-- State files below -->
  <line x1="220" y1="2815" x2="220" y2="2855" stroke="#ed8936" stroke-width="1" stroke-dasharray="4,3"/>
  <line x1="460" y1="2815" x2="460" y2="2855" stroke="#ed8936" stroke-width="1" stroke-dasharray="4,3"/>
  <line x1="700" y1="2815" x2="700" y2="2855" stroke="#ed8936" stroke-width="1" stroke-dasharray="4,3"/>

  <rect x="170" y="2855" width="680" height="40" rx="8" fill="#48bb78" opacity="0.15" stroke="#48bb78" stroke-width="1.5"/>
  <text x="510" y="2880" text-anchor="middle" fill="#276749" font-size="13">📁 .claude/state/ (L0-L6) — 唯一的状态传递通道</text>

  <!-- Legend -->
  <text x="600" y="2950" text-anchor="middle" fill="#1a202c" font-size="14" font-weight="bold">图例 Legend</text>
  <rect x="140" y="2970" width="20" height="15" rx="3" fill="#4299e1"/><text x="170" y="2983" fill="#1a202c" font-size="11">Dev Skill</text>
  <rect x="260" y="2970" width="20" height="15" rx="3" fill="#ed8936"/><text x="290" y="2983" fill="#1a202c" font-size="11">Content Skill</text>
  <rect x="400" y="2970" width="20" height="15" rx="3" fill="#9f7aea"/><text x="430" y="2983" fill="#1a202c" font-size="11">PM Gate</text>
  <rect x="540" y="2970" width="20" height="15" rx="3" fill="#48bb78"/><text x="570" y="2983" fill="#1a202c" font-size="11">Hard + Creative Gate</text>
  <rect x="710" y="2970" width="20" height="15" rx="3" fill="#e53e3e"/><text x="740" y="2983" fill="#1a202c" font-size="11">Hard Gate Only</text>
  <rect x="870" y="2970" width="20" height="15" rx="3" fill="#ecc94b"/><text x="900" y="2983" fill="#1a202c" font-size="11">Threshold</text>

  <!-- Footer -->
  <rect x="50" y="3040" width="1100" height="50" rx="8" fill="#2d3748"/>
  <text x="600" y="3065" text-anchor="middle" fill="#a0aec0" font-size="12">Reliable Dev Harness v0.5 — PM Gate Points M1-M3 Implemented — 📊 Interactive: architecture.html</text>
  <text x="600" y="3082" text-anchor="middle" fill="#718096" font-size="10">M4 (PM Enrichment) 创建 pm/ 域 Skill → 完整 PM 决策层闭环</text>
</svg>